<?xml version="1.0" encoding="iso-8859-1"?>
<!-- Generator: Adobe Illustrator 18.0.0, SVG Export Plug-In . SVG Version: 6.00 Build 0)  -->
<!DOCTYPE svg PUBLIC "-//W3C//DTD SVG 1.1//EN" "http://www.w3.org/Graphics/SVG/1.1/DTD/svg11.dtd">
<svg version="1.1" id="Capa_1" xmlns="http://www.w3.org/2000/svg" xmlns:xlink="http://www.w3.org/1999/xlink" x="0px" y="0px"
	 viewBox="0 0 60 60" style="enable-background:new 0 0 60 60;" xml:space="preserve">
<path d="M58.982,12.546L58.963,12l-0.571,0l-13-12H14.609L1.578,12.029L1,12.05v0.512v14.483v2.044v13.956V45v15l58-0.023v-15V43
	V29.066V27V13.038v-0.476L58.982,12.546z M15.391,2h29.218l10.835,10.002l-16.463,0.011l-0.164,0.799C37.967,16.977,34.259,20,30,20
	c-4.245,0-7.952-3.029-8.813-7.202L21.022,12L4.547,12.011L15.391,2z M57,57.979L3,58V45.044l16.425-0.011
	C20.761,49.695,25.084,53,30,53c4.928,0,9.254-3.313,10.582-7.988L57,45V57.979z M30,51c-3.84,0-7.229-2.467-8.481-6.008
	l16.965-0.007C37.235,48.531,33.846,51,30,51z M57,42.979L3,43V29.089l16.441-0.007C20.794,33.718,25.101,37,30,37
	c4.906,0,9.213-3.285,10.562-7.926L57,29.067V42.979z M21.551,29.081l16.903-0.007C37.179,32.572,33.814,35,30,35
	C26.192,35,22.827,32.574,21.551,29.081z M38.981,27.013l-0.013,0.062l-17.936,0.007l-0.01-0.05L3,27.044V14.012L19.425,14
	c1.338,4.682,5.662,8,10.576,8c4.928,0,9.254-3.313,10.582-7.988L57,14v13L38.981,27.013z"/>
<g>
</g>
<g>
</g>
<g>
</g>
<g>
</g>
<g>
</g>
<g>
</g>
<g>
</g>
<g>
</g>
<g>
</g>
<g>
</g>
<g>
</g>
<g>
</g>
<g>
</g>
<g>
</g>
<g>
</g>
</svg>
