<?xml version="1.0" encoding="iso-8859-1"?>
<!-- Generator: Adobe Illustrator 18.0.0, SVG Export Plug-In . SVG Version: 6.00 Build 0)  -->
<!DOCTYPE svg PUBLIC "-//W3C//DTD SVG 1.1//EN" "http://www.w3.org/Graphics/SVG/1.1/DTD/svg11.dtd">
<svg version="1.1" id="Capa_1" xmlns="http://www.w3.org/2000/svg" xmlns:xlink="http://www.w3.org/1999/xlink" x="0px" y="0px"
	 viewBox="0 0 452.857 452.857" style="enable-background:new 0 0 452.857 452.857;" xml:space="preserve">
<g>
	<path d="M251.87,154.044l8.201,8.76c7.276-6.812,14.733-13.639,22.163-20.289l-8.003-8.941
		C266.734,140.283,259.211,147.17,251.87,154.044z"/>
	<path d="M130.656,283.415l9.274,7.614c31.737-38.658,66.015-75.938,101.88-110.804l-8.364-8.604
		C197.26,206.799,162.676,244.411,130.656,283.415z"/>
	<path d="M452.839,93.203c-0.254-7.327-3.505-14.232-8.689-19.417l-15.35-15.35c-11.036-11.035-28.991-11.035-40.026,0
		l-16.518,16.518l-0.787-0.787c-7.93-7.93-20.451-9.23-29.66-2.828c-0.015,0.01-0.03,0.021-0.045,0.031l-29.253,20.683
		c-10.031,7.092-23.028,9.167-34.776,5.547c-2.882-0.899-6.031,0.485-7.282,3.328c-1.017,2.312-0.36,5.026,1.425,6.812l0.709,0.709
		c-10.987,9.595-21.822,19.361-32.492,29.306l-18.019-18.019c-11.358-11.358-27.999-15.14-43.412-10.615
		c-2.989,0.877-6.069,1.322-9.155,1.322c-7.938,0-15.594-2.905-21.555-8.178l-88.893-78.74c-0.004-0.004-0.008-0.007-0.013-0.011
		c-1.442-1.268-2.944-2.465-4.302-3.823L40.506,5.45c-2.343-2.343-6.142-2.343-8.485,0L1.757,35.714
		c-2.343,2.343-2.343,6.142,0,8.485L15.968,58.41c1.363,1.363,2.571,2.867,3.837,4.322c0.009,0.01,0.017,0.02,0.026,0.03
		l78.74,88.892c7.467,8.43,10.03,19.912,6.853,30.72c-1.2,4.098-1.808,8.315-1.808,12.537c0,11.718,4.753,23.192,13.042,31.481
		l19.542,19.542c-27.039,31.458-52.642,64.152-76.684,97.964c-8.679,12.206-7.238,28.907,3.353,39.498l56.739,56.739
		c5.969,5.969,13.819,9.03,21.728,9.03c6.199,0,12.433-1.88,17.825-5.715c33.793-24.031,66.469-49.621,97.91-76.645l65.878,65.878
		c3.743,3.743,8.683,6.169,13.968,6.483c6.12,0.364,11.933-1.852,16.222-6.142l76.189-76.189c8.242-8.242,8.242-21.606,0-29.848
		l-64.08-64.08c9.944-10.67,19.711-21.505,29.306-32.492l0.822,0.822c1.157,1.157,2.693,1.757,4.245,1.757
		c1.196,0,2.401-0.357,3.449-1.091c2.155-1.51,2.991-4.324,2.232-6.844c-3.516-11.675-1.419-24.57,5.622-34.529l20.71-29.291
		c0.011-0.015,0.021-0.03,0.031-0.045c6.402-9.209,5.103-21.73-2.828-29.66l-0.787-0.787l16.518-16.518
		C450.151,108.645,453.115,101.14,452.839,93.203z M36.264,18.178l10.088,10.088L24.574,50.045L14.485,39.956L36.264,18.178z
		 M32.558,59.032l22.777-22.777l84.668,74.999c8.16,7.218,18.64,11.192,29.509,11.192c4.233,0,8.453-0.609,12.542-1.81
		c11.421-3.353,23.742-0.21,32.156,8.204l7.884,7.884H101.378L32.558,59.032z M125.143,217.906
		c-6.055-6.055-9.527-14.436-9.527-22.996c0-3.08,0.446-6.163,1.323-9.159c3.746-12.744,1.647-26.171-5.541-37.028H228.48
		c-29.436,28.09-57.604,57.504-84.397,88.123L125.143,217.906z M420.842,335.472c1.719,1.719,2.665,4.005,2.665,6.438
		c0,2.434-0.946,4.72-2.665,6.439l-76.189,76.189c-1.719,1.719-4.005,2.666-6.439,2.666s-4.72-0.947-6.439-2.666l-65.618-65.618
		c31.615-27.664,61.948-56.791,90.864-87.27L420.842,335.472z M152.206,433.67c-7.48,5.32-17.621,4.471-24.112-2.021L71.355,374.91
		c-6.49-6.49-7.34-16.631-2.021-24.111c61.091-85.909,132.321-164.554,211.762-233.843l104.953,104.953
		C316.758,301.351,238.113,372.581,152.206,433.67z M421.773,154.398l-20.648,29.204c-5.641,7.978-8.842,17.401-9.402,27.012
		l-99.355-99.354c9.63-0.55,19.077-3.753,27.073-9.406l29.166-20.621c4.558-2.958,10.638-2.32,14.489,1.532l57.146,57.146
		C424.092,143.761,424.731,149.84,421.773,154.398z M380.743,83.44l8.114-8.114l38.822,38.822l-8.114,8.114L380.743,83.44z
		 M436.159,105.659l-38.814-38.814c6.363-6.274,16.641-6.252,22.97,0.077l15.767,15.767
		C442.411,89.018,442.434,99.296,436.159,105.659z"/>
	<path d="M400.602,342.141c1.171,1.171,2.707,1.757,4.243,1.757s3.071-0.586,4.243-1.757c2.343-2.343,2.343-6.142,0-8.485
		l-42.345-42.345c-2.343-2.343-6.143-2.343-8.485,0c-2.343,2.343-2.343,6.142,0,8.485L400.602,342.141z"/>
	<path d="M74.704,58.117c-2.43-2.253-6.227-2.109-8.479,0.32c-2.253,2.43-2.109,6.226,0.32,8.479l6.627,6.145
		c1.155,1.071,2.618,1.6,4.078,1.6c1.612,0,3.219-0.646,4.401-1.92c2.253-2.43,2.109-6.226-0.32-8.479L74.704,58.117z"/>
	<path d="M108.252,105.587c1.155,1.071,2.618,1.6,4.078,1.6c1.612,0,3.219-0.646,4.401-1.92c2.253-2.43,2.109-6.227-0.32-8.479
		L95.592,77.484c-2.43-2.253-6.227-2.109-8.479,0.32c-2.253,2.43-2.109,6.227,0.32,8.479L108.252,105.587z"/>
</g>
<g>
</g>
<g>
</g>
<g>
</g>
<g>
</g>
<g>
</g>
<g>
</g>
<g>
</g>
<g>
</g>
<g>
</g>
<g>
</g>
<g>
</g>
<g>
</g>
<g>
</g>
<g>
</g>
<g>
</g>
</svg>
