<?xml version="1.0" encoding="iso-8859-1"?>
<!-- Generator: Adobe Illustrator 19.0.0, SVG Export Plug-In . SVG Version: 6.00 Build 0)  -->
<svg version="1.1" id="Layer_1" xmlns="http://www.w3.org/2000/svg" xmlns:xlink="http://www.w3.org/1999/xlink" x="0px" y="0px"
	 viewBox="0 0 500 500" style="enable-background:new 0 0 500 500;" xml:space="preserve">
<g>
	<g>
		<path d="M128.956,156.136H70.384c-2.212,0-4,1.792-4,4s1.788,4,4,4h58.568c2.212,0,4.004-1.792,4.004-4
			S131.168,156.136,128.956,156.136z"/>
	</g>
</g>
<g>
	<g>
		<path d="M128.956,218.612H70.384c-2.212,0-4,1.792-4,4s1.788,4,4,4h58.568c2.212,0,4.004-1.792,4.004-4
			S131.168,218.612,128.956,218.612z"/>
	</g>
</g>
<g>
	<g>
		<path d="M128.956,281.088H70.384c-2.212,0-4,1.792-4,4s1.788,4,4,4h58.568c2.212,0,4.004-1.792,4.004-4
			S131.168,281.088,128.956,281.088z"/>
	</g>
</g>
<g>
	<g>
		<path d="M128.956,343.568H70.384c-2.212,0-4,1.792-4,4s1.788,4,4,4h58.568c2.212,0,4.004-1.792,4.004-4
			S131.168,343.568,128.956,343.568z"/>
	</g>
</g>
<g>
	<g>
		<path d="M455.46,42.9H48.28C22.564,42.9,0,64.868,0,89.912v278.076c0,24.968,22.108,46.056,48.28,46.056h80.672
			c2.212,0,4-1.792,4-4s-1.788-4-4-4H48.28C26.444,406.044,8,388.616,8,367.988V89.912C8,69.132,26.824,50.9,48.28,50.9h407.18
			c20.488,0,36.54,17.136,36.54,39.012v278.072c0,21.696-15.708,38.056-36.54,38.056h-80.508c-2.212,0-4,1.792-4,4s1.788,4,4,4
			h80.508c24.976,0,44.54-20.228,44.54-46.052V89.912C500,63.552,480.436,42.9,455.46,42.9z"/>
	</g>
</g>
<g>
	<g>
		<path d="M382.76,89.756H11.808c-2.212,0-4,1.792-4,4s1.788,4,4,4H382.76c2.212,0,4-1.792,4-4S384.972,89.756,382.76,89.756z"/>
	</g>
</g>
<g>
	<g>
		<path d="M492.092,89.756H433.52c-2.212,0-4,1.792-4,4s1.788,4,4,4h58.572c2.212,0,4-1.792,4-4S494.304,89.756,492.092,89.756z"/>
	</g>
</g>
<g>
	<g>
		<path d="M74.284,23.376c-2.212,0-4,1.792-4,4V66.42c0,2.208,1.788,4,4,4s4-1.788,4-3.996V27.376
			C78.284,25.168,76.496,23.376,74.284,23.376z"/>
	</g>
</g>
<g>
	<g>
		<path d="M132.86,23.376c-2.212,0-4,1.792-4,4V66.42c0,2.208,1.788,4,4,4c2.212,0,4-1.788,4-3.996V27.376
			C136.86,25.168,135.072,23.376,132.86,23.376z"/>
	</g>
</g>
<g>
	<g>
		<path d="M191.428,23.376c-2.212,0-4,1.792-4,4V66.42c0,2.208,1.788,4,4,4c2.212,0,4-1.788,4-3.996V27.376
			C195.428,25.168,193.64,23.376,191.428,23.376z"/>
	</g>
</g>
<g>
	<g>
		<path d="M250,23.376c-2.212,0-4,1.792-4,4V66.42c0,2.208,1.788,4,4,4c2.212,0,4-1.788,4-3.996V27.376
			C254,25.168,252.212,23.376,250,23.376z"/>
	</g>
</g>
<g>
	<g>
		<path d="M308.572,23.376c-2.212,0-4,1.792-4,4V66.42c0,2.208,1.788,4,4,4c2.208,0,4-1.788,4-3.996V27.376
			C312.572,25.168,310.784,23.376,308.572,23.376z"/>
	</g>
</g>
<g>
	<g>
		<path d="M367.144,23.376c-2.212,0-4,1.792-4,4V66.42c0,2.208,1.788,4,4,4c2.212,0,4-1.788,4-3.996V27.376
			C371.144,25.168,369.356,23.376,367.144,23.376z"/>
	</g>
</g>
<g>
	<g>
		<path d="M425.716,23.376c-2.212,0-4,1.792-4,4V66.42c0,2.208,1.788,4,4,4c2.208,0,4-1.788,4-3.996V27.376
			C429.716,25.168,427.928,23.376,425.716,23.376z"/>
	</g>
</g>
<g>
	<g>
		<path d="M226.572,156.136h-54.664c-2.212,0-4,1.792-4,4s1.788,4,4,4h54.664c2.208,0,4-1.792,4-4S228.784,156.136,226.572,156.136z
			"/>
	</g>
</g>
<g>
	<g>
		<path d="M226.572,218.612h-54.664c-2.212,0-4,1.792-4,4s1.788,4,4,4h54.664c2.208,0,4-1.792,4-4S228.784,218.612,226.572,218.612z
			"/>
	</g>
</g>
<g id="SVGCleanerId_0">
	<g>
		<path d="M328.092,156.136h-54.664c-2.212,0-4,1.792-4,4s1.788,4,4,4h54.664c2.212,0,4-1.792,4-4S330.304,156.136,328.092,156.136z
			"/>
	</g>
</g>
<g>
	<g>
		<path d="M328.092,218.612h-54.664c-2.212,0-4,1.792-4,4s1.788,4,4,4h54.664c2.212,0,4-1.792,4-4S330.304,218.612,328.092,218.612z
			"/>
	</g>
</g>
<g>
	<g>
		<path d="M328.092,156.136h-54.664c-2.212,0-4,1.792-4,4s1.788,4,4,4h54.664c2.212,0,4-1.792,4-4S330.304,156.136,328.092,156.136z
			"/>
	</g>
</g>
<g>
	<g>
		<path d="M429.616,156.136h-54.664c-2.212,0-4,1.792-4,4s1.788,4,4,4h54.664c2.212,0,4-1.792,4-4S431.828,156.136,429.616,156.136z
			"/>
	</g>
</g>
<g>
	<g>
		<path d="M429.616,218.612h-54.664c-2.212,0-4,1.792-4,4s1.788,4,4,4h54.664c2.212,0,4-1.792,4-4S431.828,218.612,429.616,218.612z
			"/>
	</g>
</g>
<g>
	<g>
		<path d="M429.616,281.088h-54.664c-2.212,0-4,1.792-4,4s1.788,4,4,4h54.664c2.212,0,4-1.792,4-4S431.828,281.088,429.616,281.088z
			"/>
	</g>
</g>
<g>
	<g>
		<path d="M429.616,343.568h-54.664c-2.212,0-4,1.792-4,4s1.788,4,4,4h54.664c2.212,0,4-1.792,4-4S431.828,343.568,429.616,343.568z
			"/>
	</g>
</g>
<g>
	<g>
		<path d="M251.984,250.256c-62.408,0-113.18,50.776-113.18,113.184s50.772,113.184,113.18,113.184
			c62.412,0,113.184-50.772,113.184-113.184S314.396,250.256,251.984,250.256z M251.984,468.624
			c-57.996,0-105.18-47.184-105.18-105.184s47.184-105.184,105.18-105.184c58,0,105.184,47.184,105.184,105.184
			S309.984,468.624,251.984,468.624z"/>
	</g>
</g>
<g>
	<g>
		<path d="M251.984,265.78c-53.848,0-97.656,43.808-97.656,97.656c0,53.852,43.808,97.66,97.656,97.66
			c53.852,0,97.664-43.808,97.664-97.66C349.648,309.588,305.836,265.78,251.984,265.78z M251.984,453.1
			c-49.436,0-89.656-40.22-89.656-89.66s40.22-89.656,89.656-89.656c49.44,0,89.664,40.216,89.664,89.656
			S301.424,453.1,251.984,453.1z"/>
	</g>
</g>
<g>
	<g>
		<path d="M302.548,351.376h-40.74v-38.58c0-8.66-5.088-11.744-9.856-11.744s-9.86,3.084-9.86,11.744v38.58h-40.828
			c-6.484,0-11.752,5.3-11.752,11.812s5.272,11.808,11.752,11.808h40.828v39.088c0,8.656,5.096,11.74,9.86,11.74
			c4.768,0,9.856-3.084,9.856-11.74v-39.088h40.74c6.48,0,11.748-5.296,11.748-11.808S309.024,351.376,302.548,351.376z
			 M302.548,366.996h-44.74c-2.212,0-4,1.792-4,4v43.088c0,3.74-1.252,3.74-1.856,3.74s-1.86,0-1.86-3.74v-43.088
			c0-2.208-1.788-4-4-4h-44.828c-2.032,0-3.752-1.744-3.752-3.808c0-2.104,1.684-3.812,3.752-3.812h44.828c2.212,0,4-1.792,4-4
			v-42.58c0-3.744,1.256-3.744,1.86-3.744s1.856,0,1.856,3.744v42.58c0,2.208,1.788,4,4,4h44.74c2.032,0,3.748,1.744,3.748,3.812
			C306.296,365.252,304.58,366.996,302.548,366.996z"/>
	</g>
</g>
<g>
</g>
<g>
</g>
<g>
</g>
<g>
</g>
<g>
</g>
<g>
</g>
<g>
</g>
<g>
</g>
<g>
</g>
<g>
</g>
<g>
</g>
<g>
</g>
<g>
</g>
<g>
</g>
<g>
</g>
</svg>
