<?xml version="1.0" encoding="iso-8859-1"?>
<!-- Generator: Adobe Illustrator 18.0.0, SVG Export Plug-In . SVG Version: 6.00 Build 0)  -->
<!DOCTYPE svg PUBLIC "-//W3C//DTD SVG 1.1//EN" "http://www.w3.org/Graphics/SVG/1.1/DTD/svg11.dtd">
<svg version="1.1" id="Capa_1" xmlns="http://www.w3.org/2000/svg" xmlns:xlink="http://www.w3.org/1999/xlink" x="0px" y="0px"
	 viewBox="0 0 314.758 314.758" style="enable-background:new 0 0 314.758 314.758;" xml:space="preserve">
<g>
	<path d="M302.057,91.155l-156.315,0l0.087,17.246h156.228c2.009,0,3.638-1.629,3.638-3.638v-9.97
		C305.695,92.784,304.066,91.155,302.057,91.155z"/>
	<path d="M300.868,175.546H146.166l0.029,5.741c0.055,11.098-7.98,20.38-18.556,22.259h173.23c2.009,0,3.638-1.629,3.638-3.638
		v-20.724C304.506,177.175,302.878,175.546,300.868,175.546z"/>
	<path d="M136.195,181.336l-0.461-91.833c-0.073-14.194-10.349-26.374-24.22-28.935c-3.846,8.849-4.455,17.68-2.841,25.266v0
		c2.405,1.595,2.06,3.849,2.074,6.577c0.017,0.04,0.033,0.082,0.051,0.123c0,23.127,0.396,88.927,0.396,88.927
		c0.029,5.592,3.724,10.308,8.796,11.88c1.171,0.363,2.414,0.558,3.704,0.558c0.021,0,0.043,0,0.063,0
		C130.661,193.864,136.229,188.24,136.195,181.336z"/>
	<path d="M9.525,89.504l-0.462,91.832c-0.034,6.903,5.533,12.527,12.438,12.563c0.021,0,0.042,0,0.063,0
		c6.866,0,12.464-5.597,12.499-12.438c0,0,0.405-79.053,0.405-88.569c0.013-0.03,0.028-0.058,0.041-0.088
		c0.015-3.064-0.388-5.487,2.266-7.073c1.589-7.571,0.964-16.373-2.875-25.19C20.132,63.006,9.598,75.051,9.525,89.504z"/>
	<path d="M105.695,103.83L105.695,103.83c-6.175-8.669-8.704-19.854-7.494-31.259c0.443-4.176,1.388-8.379,2.838-12.5H89.584
		c-6.215,14.649-10.679,25.172-16.845,39.707C60.816,71.674,62.294,75.16,55.893,60.07c-4.628,0-6.929,0-11.506,0
		c1.45,4.121,2.395,8.324,2.838,12.5c1.226,11.558-1.384,22.891-7.74,31.607l0.006,195.58c0,8.284,6.716,15,15,15
		c8.362,0,15-6.85,15-15V183.1c0-1.788,1.45-3.238,3.238-3.238c1.788,0,3.238,1.45,3.238,3.238v116.658c0,8.285,6.717,15,15,15
		c8.284,0,15-6.716,15-15L105.695,103.83z M71.713,116.379c2.761,0,5,2.239,5,5c0,2.761-2.239,5-5,5c-2.761,0-5-2.239-5-5
		C66.713,118.618,68.951,116.379,71.713,116.379z M71.713,153.379c-2.761,0-5-2.239-5-5s2.239-5,5-5c2.761,0,5,2.239,5,5
		S74.474,153.379,71.713,153.379z"/>
	<path d="M72.726,51.813c14.173,0,25.907-11.487,25.907-25.907C98.632,11.599,87.033,0,72.726,0S46.819,11.599,46.819,25.907
		C46.819,40.33,58.556,51.813,72.726,51.813z"/>
	<path d="M80.79,57.624c-4.89,2.445-3.282,1.641-8.052,4.026c-3.052-1.526-5.013-2.507-8.052-4.026
		c-0.885-0.442-1.934,0.202-1.934,1.195c0,4.13,0,5.599,0,8.648c0,0.989,1.046,1.64,1.934,1.195l8.052-4.026l8.052,4.026
		c0.885,0.442,1.934-0.202,1.934-1.195c0-3.046,0-4.523,0-8.648C82.725,57.83,81.679,57.18,80.79,57.624z"/>
	<path d="M275.634,278.575c0,2.009,1.629,3.638,3.638,3.638h9.97c2.009,0,3.638-1.629,3.638-3.638v-64.362h-17.246V278.575z"/>
	<path d="M160.708,79.799h18.705c1.952,0,3.535-1.583,3.535-3.535V47.545c0-2.907-1.369-5.644-3.694-7.389
		c-3.083-2.312-4.897-5.941-4.897-9.794V17.048c0-0.931-0.755-1.685-1.685-1.685h-5.221c-0.931,0-1.685,0.755-1.685,1.685v13.315
		c0,3.853-1.814,7.482-4.897,9.794c-2.326,1.744-3.695,4.482-3.695,7.389v28.719C157.173,78.217,158.756,79.799,160.708,79.799z"/>
	<path d="M204.759,76.485c0.22,1.889,1.821,3.314,3.723,3.314h10.51c1.902,0,3.502-1.425,3.723-3.314l3.266-28.029
		c0.412-3.538-0.608-7.094-2.833-9.875c-3.311-4.139-5.115-9.281-5.115-14.581v-6.953c0-0.931-0.755-1.685-1.685-1.685h-5.221
		c-0.931,0-1.685,0.755-1.685,1.685v6.953c0,5.3-1.804,10.442-5.115,14.581c-2.225,2.781-3.245,6.337-2.833,9.875L204.759,76.485z"
		/>
	<path d="M251.826,79.799h31.567c3.089,0,5.727-2.24,6.218-5.289c0.361-2.243,0.552-4.575,0.552-6.971
		c0-9.863-3.23-18.653-8.288-24.436c-5.5-6.289-8.537-14.36-8.537-22.714v-3.415c0-0.89-0.721-1.612-1.611-1.612h-8.233
		c-0.89,0-1.611,0.721-1.611,1.612v3.417c0,8.365-3.03,16.417-8.536,22.713c-5.057,5.783-8.288,14.573-8.288,24.436
		c0,2.396,0.191,4.728,0.552,6.971C246.1,77.566,248.731,79.799,251.826,79.799z"/>
	<path d="M198.82,165.546c0.52,0.738,1.375,1.223,2.346,1.223h27.057c0.971,0,1.826-0.485,2.346-1.223
		c0.329-0.467,0.526-1.034,0.526-1.649v-4.542c16.747-2.383,29.008-8.306,30.571-15.401c0.083-0.375-0.009-0.768-0.25-1.068
		c-0.241-0.299-0.605-0.473-0.989-0.473h-91.466c-0.384,0-0.748,0.174-0.988,0.474c-0.241,0.299-0.334,0.692-0.251,1.067
		c1.563,7.095,13.824,13.018,30.571,15.401v4.542C198.293,164.512,198.49,165.079,198.82,165.546z"/>
</g>
<g>
</g>
<g>
</g>
<g>
</g>
<g>
</g>
<g>
</g>
<g>
</g>
<g>
</g>
<g>
</g>
<g>
</g>
<g>
</g>
<g>
</g>
<g>
</g>
<g>
</g>
<g>
</g>
<g>
</g>
</svg>
