<?xml version="1.0" encoding="iso-8859-1"?>
<!-- Uploaded to: SVG Repo, www.svgrepo.com, Generator: SVG Repo Mixer Tools -->
<svg height="800px" width="800px" version="1.1" id="Layer_1" xmlns="http://www.w3.org/2000/svg" xmlns:xlink="http://www.w3.org/1999/xlink" 
	 viewBox="0 0 300.725 300.725" xml:space="preserve">
<g>
	<g id="close-hang-sign-light-shop_1_">
		<path style="fill:#F78B28;" d="M150.363,176.206c-5.183,0-9.398,4.215-9.398,9.398v28.193c0,5.183,4.215,9.398,9.398,9.398
			s9.398-4.215,9.398-9.398v-28.193C159.76,180.421,155.546,176.206,150.363,176.206z"/>
		<path style="fill:#F78B28;" d="M281.93,143.314H28.193c-7.772,0-14.097,6.325-14.097,14.096v84.579
			c0,7.772,6.325,14.097,14.097,14.097H281.93c7.772,0,14.096-6.325,14.096-14.097V157.41
			C296.027,149.639,289.702,143.314,281.93,143.314z M84.579,185.604h-9.398v-2.349c0-3.886-3.162-7.048-7.048-7.048
			c-3.886,0-7.048,3.162-7.048,7.048v32.892c0,3.886,3.162,7.048,7.048,7.048s7.048-3.162,7.048-7.048v-2.349h9.398v2.349
			c0,9.069-7.377,16.446-16.446,16.446s-16.446-7.377-16.446-16.446v-32.892c0-9.069,7.377-16.446,16.446-16.446
			s16.446,7.377,16.446,16.446V185.604z M126.869,232.592H98.676c-2.594,0-4.699-2.105-4.699-4.699v-61.085h9.398v56.386h23.494
			V232.592z M169.158,213.797c0,10.366-8.43,18.795-18.795,18.795s-18.795-8.43-18.795-18.795v-28.193
			c0-10.366,8.43-18.795,18.795-18.795c10.366,0,18.795,8.43,18.795,18.795V213.797z M211.448,185.604h-9.398v-2.349
			c0-3.886-3.162-7.048-7.048-7.048s-7.048,3.162-7.048,7.048v4.699c0,3.886,3.162,7.048,7.048,7.048
			c9.069,0,16.446,7.377,16.446,16.446v4.699c0,9.069-7.377,16.446-16.446,16.446s-16.446-7.377-16.446-16.446v-2.349h9.398v2.349
			c0,3.886,3.162,7.048,7.048,7.048s7.048-3.162,7.048-7.048v-4.699c0-3.886-3.162-7.048-7.048-7.048
			c-9.069,0-16.446-7.377-16.446-16.446v-4.699c0-9.069,7.377-16.446,16.446-16.446s16.446,7.377,16.446,16.446V185.604z
			 M253.737,176.206h-23.494v18.795h18.795v9.398h-18.795v18.795h23.494v9.398h-28.193c-2.594,0-4.699-2.105-4.699-4.699v-23.494
			v-9.398v-23.494c0-2.594,2.105-4.699,4.699-4.699h28.193V176.206z"/>
		<circle style="fill:#FFFFFF;" cx="155.062" cy="58.735" r="4.699"/>
		<path d="M190.303,162.11c-9.069,0-16.446,7.377-16.446,16.446v4.699c0,9.069,7.377,16.446,16.446,16.446
			c3.886,0,7.048,3.162,7.048,7.048v4.699c0,3.886-3.162,7.048-7.048,7.048s-7.048-3.162-7.048-7.048V209.1h-9.398v2.349
			c0,9.069,7.377,16.446,16.446,16.446s16.446-7.377,16.446-16.446v-4.699c0-9.069-7.377-16.446-16.446-16.446
			c-3.886,0-7.048-3.162-7.048-7.048v-4.699c0-3.886,3.162-7.048,7.048-7.048s7.048,3.162,7.048,7.048v2.349h9.398v-2.349
			C206.749,169.487,199.372,162.11,190.303,162.11z"/>
		<path d="M216.146,166.809v23.494v9.398v23.494c0,2.594,2.105,4.699,4.699,4.699h28.193v-9.398h-23.494V199.7h18.795v-9.398
			h-18.795v-18.795h23.494v-9.398h-28.193C218.251,162.11,216.146,164.215,216.146,166.809z"/>
		<path d="M277.231,129.218h-31.327l-86.233-64.675c2.913-2.584,4.788-6.315,4.788-10.507c0-7.772-6.325-14.097-14.097-14.097
			s-14.096,6.325-14.096,14.097c0,4.191,1.875,7.922,4.788,10.507l-86.233,64.675H23.494C10.539,129.218,0,139.757,0,152.712v84.579
			c0,12.955,10.539,23.494,23.494,23.494h253.737c12.955,0,23.494-10.539,23.494-23.494v-84.579
			C300.725,139.757,290.186,129.218,277.231,129.218z M150.363,49.338c2.589,0,4.699,2.11,4.699,4.699
			c0,2.589-2.11,4.699-4.699,4.699s-4.699-2.11-4.699-4.699C145.664,51.448,147.774,49.338,150.363,49.338z M150.363,69.308
			l79.88,59.91H70.483L150.363,69.308z M291.328,237.291c0,7.772-6.325,14.097-14.096,14.097H23.494
			c-7.772,0-14.097-6.325-14.097-14.097v-84.579c0-7.772,6.325-14.097,14.097-14.097h253.737c7.772,0,14.096,6.325,14.096,14.097
			v84.579H291.328z"/>
		<path d="M63.434,162.11c-9.069,0-16.446,7.377-16.446,16.446v32.892c0,9.069,7.377,16.446,16.446,16.446
			s16.446-7.377,16.446-16.446v-2.349h-9.398v2.349c0,3.886-3.162,7.048-7.048,7.048s-7.048-3.162-7.048-7.048v-32.892
			c0-3.886,3.162-7.048,7.048-7.048s7.048,3.162,7.048,7.048v2.349h9.398v-2.349C79.88,169.487,72.503,162.11,63.434,162.11z"/>
		<path d="M98.676,162.11h-9.398v61.085c0,2.594,2.105,4.699,4.699,4.699h28.193v-9.398H98.676V162.11z"/>
		<path d="M145.664,162.11c-10.366,0-18.795,8.43-18.795,18.795v28.193c0,10.366,8.43,18.795,18.795,18.795
			c10.366,0,18.795-8.43,18.795-18.795v-28.193C164.459,170.54,156.03,162.11,145.664,162.11z M155.062,209.098
			c0,5.183-4.215,9.398-9.398,9.398s-9.398-4.215-9.398-9.398v-28.193c0-5.183,4.215-9.398,9.398-9.398s9.398,4.215,9.398,9.398
			V209.098z"/>
	</g>
	<g id="Layer_1_5_">
	</g>
</g>
</svg>