<?xml version="1.0" encoding="utf-8"?>
<!-- Uploaded to: SVG Repo, www.svgrepo.com, Generator: SVG Repo Mixer Tools -->
<svg width="800px" height="800px" viewBox="0 0 64 64" xmlns="http://www.w3.org/2000/svg" xmlns:xlink="http://www.w3.org/1999/xlink" aria-hidden="true" role="img" class="iconify iconify--emojione" preserveAspectRatio="xMidYMid meet">
<path d="M35.7 62.2c-1.4 2.1-4.4 2.4-6.8.7l-27-19C.1 42.6-.5 40.1.7 38.3L24.4 2C25.6.2 28.2-.5 30.3.4l30.6 13.5c2.7 1.2 3.9 3.9 2.5 6L35.7 62.2" fill="#d3976e">
</path>
<path fill="#ffffff" d="M31.4 59.8L3.5 40.7L28 3.3l31.1 14.2z">
</path>
<path d="M49 14.8c-.4.6-1.3.8-2.1.4L35.3 9.7c-.7-.3-.9-1-.5-1.6l1.8-2.8c.4-.6 1.2-.8 1.9-.5l11.9 5.3c.8.3 1 1.1.7 1.7l-2.1 3" fill="#94989b">
</path>
<path d="M46.8 11.1l-7.5-3.4l1.9-2.8c.4-.6 1.2-.8 1.9-.5l5 2.2c.7.3 1 1.1.6 1.6l-1.9 2.9" fill="#333">
</path>
<g fill="#83bf4f">
<path d="M47.3 26.6l-15.6-8.1l.8-1.2l15.7 7.9z">
</path>
<path d="M26.7 17.7c-.2.1-.4 0-.4-.1l-1-2.8c-.1-.2.1-.4.3-.4l.4-.1c.2 0 .4.1.5.2L27 16c.1.2.3.2.4.1l2.9-1.6c.2-.1.4-.1.5.1l.2.3c.1.2.1.4-.1.5l-4.2 2.3">
</path>
</g>
<g fill="#b0bdc6">
<path d="M42.2 34.4l-15.4-8.5l.9-1.3l15.4 8.5z">
</path>
<path d="M23.9 26.2l-4.5-2.6l2.6-4l4.6 2.5z">
</path>
<path d="M37.1 42.2l-15.1-9l.9-1.2L38 40.9z">
</path>
<path d="M19.1 33.5l-4.4-2.7l2.6-4l4.5 2.6z">
</path>
<path d="M32 50.1l-14.8-9.5l.8-1.3l14.8 9.4z">
</path>
<path d="M14.4 40.8L10 37.9l2.6-4l4.4 2.8z">
</path>
</g>
</svg>