<?xml version='1.0' encoding='iso-8859-1'?>
<svg version="1.1" xmlns="http://www.w3.org/2000/svg" viewBox="0 0 463 463" xmlns:xlink="http://www.w3.org/1999/xlink" enable-background="new 0 0 463 463">
  <g>
    <g>
      <path d="m404.803,90.197l-88-88c-1.406-1.407-3.314-2.197-5.303-2.197h-232c-12.958,0-23.5,10.542-23.5,23.5v416c0,12.958 10.542,23.5 23.5,23.5h304c12.958,0 23.5-10.542 23.5-23.5v-344c0-1.989-0.79-3.897-2.197-5.303zm-85.803-64.591l62.394,62.394h-53.894c-4.687,0-8.5-3.813-8.5-8.5v-53.894zm64.5,422.394h-304c-4.687,0-8.5-3.813-8.5-8.5v-416c0-4.687 3.813-8.5 8.5-8.5h224.5v64.5c0,12.958 10.542,23.5 23.5,23.5h64.5v336.5c0,4.687-3.813,8.5-8.5,8.5z"/>
      <path d="m111.5,63h56c4.142,0 7.5-3.358 7.5-7.5s-3.358-7.5-7.5-7.5h-56c-4.142,0-7.5,3.358-7.5,7.5s3.358,7.5 7.5,7.5z"/>
      <path d="m111.5,103h88c4.142,0 7.5-3.358 7.5-7.5s-3.358-7.5-7.5-7.5h-88c-4.142,0-7.5,3.358-7.5,7.5s3.358,7.5 7.5,7.5z"/>
      <path d="m176,159.5c0,4.142 3.358,7.5 7.5,7.5h96c4.142,0 7.5-3.358 7.5-7.5s-3.358-7.5-7.5-7.5h-96c-4.142,0-7.5,3.358-7.5,7.5z"/>
      <path d="m351.5,192h-240c-4.142,0-7.5,3.358-7.5,7.5s3.358,7.5 7.5,7.5h240c4.142,0 7.5-3.358 7.5-7.5s-3.358-7.5-7.5-7.5z"/>
      <path d="m255.5,336h-56c-4.142,0-7.5,3.358-7.5,7.5s3.358,7.5 7.5,7.5h56c4.142,0 7.5-3.358 7.5-7.5s-3.358-7.5-7.5-7.5z"/>
      <path d="m255.5,376h-56c-4.142,0-7.5,3.358-7.5,7.5s3.358,7.5 7.5,7.5h56c4.142,0 7.5-3.358 7.5-7.5s-3.358-7.5-7.5-7.5z"/>
      <path d="m351.5,232h-240c-4.142,0-7.5,3.358-7.5,7.5s3.358,7.5 7.5,7.5h240c4.142,0 7.5-3.358 7.5-7.5s-3.358-7.5-7.5-7.5z"/>
      <path d="m351.5,272h-240c-4.142,0-7.5,3.358-7.5,7.5s3.358,7.5 7.5,7.5h240c4.142,0 7.5-3.358 7.5-7.5s-3.358-7.5-7.5-7.5z"/>
      <path d="m319.5,328c-21.78,0-39.5,17.72-39.5,39.5s17.72,39.5 39.5,39.5 39.5-17.72 39.5-39.5-17.72-39.5-39.5-39.5zm0,64c-13.509,0-24.5-10.991-24.5-24.5s10.991-24.5 24.5-24.5 24.5,10.991 24.5,24.5-10.991,24.5-24.5,24.5z"/>
      <path d="m319.5,354c-7.444,0-13.5,6.056-13.5,13.5s6.056,13.5 13.5,13.5 13.5-6.056 13.5-13.5-6.056-13.5-13.5-13.5z"/>
    </g>
  </g>
</svg>
