<?xml version="1.0" encoding="iso-8859-1"?>
<!-- Generator: Adobe Illustrator 19.0.0, SVG Export Plug-In . SVG Version: 6.00 Build 0)  -->
<svg version="1.1" id="Layer_1" xmlns="http://www.w3.org/2000/svg" xmlns:xlink="http://www.w3.org/1999/xlink" x="0px" y="0px"
	 viewBox="0 0 507.6 507.6" style="enable-background:new 0 0 507.6 507.6;" xml:space="preserve">
<path style="fill:#FFC52F;" d="M33.622,306.4c0,8.8,7.2,16,16,16h51.2c29.6,104,123.6,180,238,180c44,0,89.2-12,127.2-34
	c7.6-4.4,10-11.6,5.6-19.2s-14-10-21.6-5.6c-33.2,19.2-70.8,29.2-109.2,29.2c-96.8,0-178.8-62.4-207.2-150.4h188.8
	c8.8,0,16-7.2,16-16s-7.2-16-16-16h-196.8c-2-12-2.8-24-2.8-36s1.2-24,2.8-36h196.8c8.8,0,16-7.2,16-16s-7.2-16-16-16h-188.8
	c28.4-88,110.4-149.6,207.2-149.6c38.4,0,76,10.4,109.2,29.6c7.6,4.4,17.2,2,21.6-5.6s2-17.2-5.6-21.6c-38-22-81.2-32.4-125.2-32.4
	c-114.4,0-210.8,71.6-240,179.6h-51.2c-8.8,0-16,7.2-16,16s7.2,16,16,16h44.8c-1.6,12-2.4,24-2.4,36s0.8,24,2.4,36h-44.8
	C40.422,290.4,33.622,297.6,33.622,306.4z"/>
<path d="M340.822,507.6c-112.4,0-212-73.6-243.2-179.2h-48.4c-10.8,0-20-8.8-20-20s8.8-20,20-20h40c-1.2-10.8-2-21.6-2-32
	s0.8-21.2,2-32h-40c-10.8,0-20-8.8-20-20s8.8-20,20-20h48.4C129.222,74,226.422,0,340.822,0l0,0c47.6,0,90.4,10.8,127.2,32
	c4.4,2.8,8,7.2,9.2,12.4c1.2,5.2,0.8,10.8-2,15.2c-5.6,9.6-18,13.2-27.2,7.6c-31.2-18-68.4-27.6-107.2-27.6
	c-90.8,0-171.2,58-201.6,144.8h183.2c10.8,0,20,8.8,20,20s-8.8,20-20,20h-192.8c-1.6,10.8-2.4,21.6-2.4,32s0.8,21.2,2.4,32h193.2
	c10.8,0,20,8.8,20,20s-8.8,20-20,20h-183.2c29.6,83.6,109.6,139.6,201.6,139.6c34.4,0,71.2-10.8,107.2-31.6c4.4-2.8,10-3.2,15.2-1.6
	s9.2,4.8,12,9.6c5.6,9.6,2.4,22.4-7.2,28C427.622,495.2,383.622,507.6,340.822,507.6z M49.222,296.4c-6.4,0-12,5.2-12,12
	s5.2,12,12,12h51.2c1.6,0,3.2,1.2,4,2.8c29.2,103.6,126.4,176.4,236.4,176.4c41.6,0,84-12,123.2-34.4c5.6-3.2,7.6-11.2,4.4-16.8
	c-1.6-2.8-4.4-4.8-7.2-6c-3.2-0.8-6-0.8-8.8,0.8l0,0c-37.2,21.6-75.6,32.8-111.2,32.8c-97.2,0-182-60.4-210.8-150.4
	c-0.4-1.2,0-2.4,0.4-3.6c0.8-1.2,2-1.6,3.2-1.6h188.8c6.4,0,12-5.2,12-12s-5.2-12-12-12h-196.8c-2,0-3.6-1.6-4-3.2
	c-2-12.8-3.2-24.8-3.2-36.8s0.8-24,3.2-36.8c0.4-2,2-3.2,4-3.2h196.8c6.4,0,12-5.2,12-12s-5.2-12-12-12h-189.2
	c-1.2,0-2.4-0.8-3.2-1.6c-0.8-1.2-0.8-2.4-0.4-3.6c30-93.2,114.8-155.6,210.8-155.6c40.4,0,78.8,10,111.2,28.8
	c5.6,3.2,12.8,1.2,16-4.8c1.6-2.8,2-6,1.2-9.2s-2.8-5.6-5.6-7.2c-35.2-20.4-76.8-30.8-123.2-30.8c-111.6,0-206.8,72.8-236.4,181.2
	c-0.4,1.6-2,2.8-4,2.8h-51.2c-6.4,0-12,5.2-12,12s5.2,12,12,12h44.8c1.2,0,2.4,0.4,3.2,1.2s1.2,2,0.8,3.2c-1.6,12.4-2.4,24-2.4,35.6
	s0.8,23.2,2.4,35.6c0,1.2,0,2.4-0.8,3.2c-0.8,0.8-2,1.2-3.2,1.2H49.222z"/>
<g>
</g>
<g>
</g>
<g>
</g>
<g>
</g>
<g>
</g>
<g>
</g>
<g>
</g>
<g>
</g>
<g>
</g>
<g>
</g>
<g>
</g>
<g>
</g>
<g>
</g>
<g>
</g>
<g>
</g>
</svg>
