<?xml version="1.0" encoding="iso-8859-1"?>
<!-- Generator: Adobe Illustrator 19.0.0, SVG Export Plug-In . SVG Version: 6.00 Build 0)  -->
<svg version="1.1" id="Layer_1" xmlns="http://www.w3.org/2000/svg" xmlns:xlink="http://www.w3.org/1999/xlink" x="0px" y="0px"
	 viewBox="0 0 512 512" style="enable-background:new 0 0 512 512;" xml:space="preserve">
<g>
	<g>
		<g>
			<path d="M88.754,165.669V512h334.492V165.669L256.001,31.873L88.754,165.669z M407.475,496.227h-0.001H104.526V173.249
				l151.474-121.18l151.474,121.179V496.227z"/>
			<polygon points="200.306,488.177 216.078,488.177 216.078,328.735 295.922,328.735 295.922,488.177 311.694,488.177 
				311.694,312.963 200.306,312.963 			"/>
			<polygon points="256.001,0 152.335,82.932 152.335,49.938 136.563,49.938 136.563,95.55 51.873,163.301 61.727,175.616 
				256.001,20.197 450.273,175.616 460.127,163.301 			"/>
			<rect x="232.182" y="384.59" width="15.772" height="31.87"/>
			<rect x="248.111" y="129.623" width="15.772" height="71.709"/>
		</g>
	</g>
</g>
<g>
</g>
<g>
</g>
<g>
</g>
<g>
</g>
<g>
</g>
<g>
</g>
<g>
</g>
<g>
</g>
<g>
</g>
<g>
</g>
<g>
</g>
<g>
</g>
<g>
</g>
<g>
</g>
<g>
</g>
</svg>
