<?xml version="1.0" encoding="iso-8859-1"?>
<!-- Generator: Adobe Illustrator 19.0.0, SVG Export Plug-In . SVG Version: 6.00 Build 0)  -->
<svg version="1.1" id="Layer_1" xmlns="http://www.w3.org/2000/svg" xmlns:xlink="http://www.w3.org/1999/xlink" x="0px" y="0px"
	 viewBox="0 0 512 512" style="enable-background:new 0 0 512 512;" xml:space="preserve">
<g>
	<rect x="132.012" y="467.184" style="fill:#666666;" width="247.996" height="16"/>
	<rect x="248.016" y="395.492" style="fill:#666666;" width="16" height="75.72"/>
</g>
<path style="fill:#FFFFFF;" d="M32.8,36.848h446.432c13.688,0,24.784,11.096,24.784,24.784v307.712
	c0,13.688-11.096,24.784-24.784,24.784H32.8c-13.688,0-24.784-11.096-24.784-24.784V61.632C8.016,47.944,19.112,36.848,32.8,36.848z
	"/>
<g>
	<path style="fill:#666666;" d="M479.232,44.816c9.278,0,16.8,7.522,16.8,16.8v307.728c0,9.278-7.522,16.8-16.8,16.8H32.8
		c-9.278,0-16.8-7.522-16.8-16.8V61.616c0-9.278,7.522-16.8,16.8-16.8l0,0h446.4 M479.2,28.816H32.8
		C14.703,28.86,0.044,43.52,0,61.616v307.728c0.044,18.097,14.703,32.756,32.8,32.8h446.4c18.097-0.044,32.756-14.703,32.8-32.8
		V61.616C511.956,43.52,497.297,28.86,479.2,28.816z"/>
	<polygon style="fill:#666666;" points="301.856,331.272 197.104,255.52 120.4,329.064 114.872,323.28 196.384,245.136 
		301.384,321.072 386.08,247.16 391.352,253.184 	"/>
</g>
<g>
	<circle style="fill:#E21B1B;" cx="196.356" cy="250.212" r="26.096"/>
	<circle style="fill:#E21B1B;" cx="388.921" cy="250.212" r="26.096"/>
	<circle style="fill:#E21B1B;" cx="117.442" cy="325.889" r="26.096"/>
	<circle style="fill:#E21B1B;" cx="301.853" cy="325.889" r="26.096"/>
</g>
<path style="fill:#999999;" d="M292.713,234.008v-19.384c-11.361-0.137-22.501-3.166-32.368-8.8l5.392-18.784
	c9.455,5.602,20.211,8.636,31.2,8.8c12.592,0,21.184-6.192,21.184-15.784c0-8.992-6.992-14.792-21.784-20.184
	c-20.984-7.592-34.568-17.176-34.568-35.768c0-17.184,12-30.4,32.168-33.976V70.544h16.336v18.592
	c9.57,0.101,18.995,2.354,27.576,6.592l-5.4,18.4c-8.393-4.409-17.72-6.741-27.2-6.8c-13.992,0-18.984,7.2-18.984,13.992
	c0,8.184,7.2,12.8,24.176,19.576c22.4,8.4,32.368,19.2,32.368,36.968c0,16.984-11.792,32-33.768,35.568v20.584L292.713,234.008z"/>
<g>
</g>
<g>
</g>
<g>
</g>
<g>
</g>
<g>
</g>
<g>
</g>
<g>
</g>
<g>
</g>
<g>
</g>
<g>
</g>
<g>
</g>
<g>
</g>
<g>
</g>
<g>
</g>
<g>
</g>
</svg>
