<?xml version="1.0" encoding="iso-8859-1"?>
<!-- Generator: Adobe Illustrator 16.0.0, SVG Export Plug-In . SVG Version: 6.00 Build 0)  -->
<!DOCTYPE svg PUBLIC "-//W3C//DTD SVG 1.1//EN" "http://www.w3.org/Graphics/SVG/1.1/DTD/svg11.dtd">
<svg version="1.1" id="Capa_1" xmlns="http://www.w3.org/2000/svg" xmlns:xlink="http://www.w3.org/1999/xlink" x="0px" y="0px"
	 width="471.087px" height="471.086px" viewBox="0 0 471.087 471.086" style="enable-background:new 0 0 471.087 471.086;"
	 xml:space="preserve">
<g>
	<g>
		<path d="M215.824,262.818H57.605c-3.313,0-6,2.687-6,6s2.687,6,6,6h158.219c3.313,0,6-2.687,6-6S219.137,262.818,215.824,262.818z
			"/>
		<path d="M278.096,223.15H57.605c-3.313,0-6,2.687-6,6s2.687,6,6,6h220.491c3.312,0,6-2.687,6-6S281.41,223.15,278.096,223.15z"/>
		<path d="M133.612,291.276H57.605c-3.313,0-6,2.688-6,6s2.687,6,6,6h76.007c3.313,0,6-2.688,6-6S136.925,291.276,133.612,291.276z"
			/>
		<path d="M464.434,111.561l-15.4-15.401l0,0l0,0l-15.402-15.402c-4.283-4.285-9.996-6.644-16.088-6.644s-11.805,2.359-16.09,6.644
			l-63.352,63.354H34.106C15.299,144.112,0,159.413,0,178.219v184.648c0,18.807,15.3,34.106,34.106,34.106h316.525
			c18.807,0,34.105-15.3,34.105-34.106V222.222c1.789-1.006,3.459-2.246,4.949-3.734l74.746-74.748
			C473.305,134.868,473.305,120.432,464.434,111.561z M409.939,89.243c2.018-2.018,4.717-3.129,7.604-3.129s5.586,1.111,7.604,3.129
			l11.16,11.159l-89.959,89.956l-11.156-11.157c-2.02-2.018-3.129-4.718-3.129-7.604c0-2.886,1.109-5.586,3.129-7.604
			L409.939,89.243z M321.406,183.684l37.732,37.732l-44.348,6.789c-0.066,0.01-0.133,0.018-0.195,0.022
			c0.004-0.058,0.012-0.123,0.021-0.197L321.406,183.684z M350.631,384.973H34.106c-12.189,0-22.106-9.917-22.106-22.106V178.219
			c0-12.19,9.917-22.107,22.106-22.107h292.052c-3.361,3.608-5.436,8.128-5.957,13.01c-0.236-0.018-0.467-0.029-0.68-0.029
			c-3.701,0-8.398,2.446-9.451,9.339l-7.314,47.783c-0.578,3.787,0.359,7.339,2.646,10c2.225,2.591,5.443,4.018,9.062,4.018
			c0.705,0,1.428-0.057,2.145-0.166l47.781-7.314c3.91-0.599,6.875-2.532,8.348-5.381v135.495
			C372.736,375.057,362.82,384.973,350.631,384.973z M455.947,135.254l-74.746,74.748c-2.02,2.018-4.719,3.129-7.604,3.129
			c-2.887,0-5.586-1.111-7.605-3.129l-11.158-11.159l89.957-89.956l11.158,11.159C460.141,124.239,460.141,131.061,455.947,135.254z
			"/>
	</g>
</g>
<g>
</g>
<g>
</g>
<g>
</g>
<g>
</g>
<g>
</g>
<g>
</g>
<g>
</g>
<g>
</g>
<g>
</g>
<g>
</g>
<g>
</g>
<g>
</g>
<g>
</g>
<g>
</g>
<g>
</g>
</svg>
