<?xml version="1.0" encoding="utf-8"?>

<!-- Uploaded to: SVG Repo, www.svgrepo.com, Generator: SVG Repo Mixer Tools -->
<svg width="800px" height="800px" viewBox="0 -6.33 90.755 90.755" xmlns="http://www.w3.org/2000/svg">
  <g id="open_label_door_hanger" data-name="open label door hanger" transform="translate(-458.165 -809.902)">
    <path id="Path_195" data-name="Path 195" d="M519.038,820.274a7.714,7.714,0,1,1-4.582-9.9A7.718,7.718,0,0,1,519.038,820.274Z" fill="#c9d1d1"/>
    <g id="Group_78" data-name="Group 78">
      <path id="Path_196" data-name="Path 196" d="M546.082,880.081a9.438,9.438,0,0,1-10.8,7.79l-69.21-11.225a9.446,9.446,0,0,1-7.787-10.8L461,849.107a9.438,9.438,0,0,1,10.8-7.79l69.213,11.229a9.443,9.443,0,0,1,7.787,10.8Z" fill="#398564"/>
    </g>
    <g id="Group_79" data-name="Group 79">
      <path id="Path_197" data-name="Path 197" d="M488.881,862.22a7.025,7.025,0,0,1-2.645,4.77,7.823,7.823,0,0,1-10.088-1.638,8.06,8.06,0,0,1,1.644-10.147,7.857,7.857,0,0,1,10.083,1.636A7.015,7.015,0,0,1,488.881,862.22Zm-5.1,2.635a4,4,0,0,0,.971-1.313,6.922,6.922,0,0,0,.557-1.906,6.7,6.7,0,0,0,.055-2.089,3.965,3.965,0,0,0-.5-1.474,2.736,2.736,0,0,0-.925-.955,3.537,3.537,0,0,0-1.2-.444,3.423,3.423,0,0,0-1.267.033,3.009,3.009,0,0,0-1.19.6,3.9,3.9,0,0,0-.95,1.272,6.757,6.757,0,0,0-.615,1.995,6.655,6.655,0,0,0-.058,2.071,4.145,4.145,0,0,0,.5,1.488,2.813,2.813,0,0,0,.923.942,3.142,3.142,0,0,0,1.229.462,3.2,3.2,0,0,0,1.3-.054A2.814,2.814,0,0,0,483.785,864.855Z" fill="#ffffff"/>
      <path id="Path_198" data-name="Path 198" d="M502.913,861.969a4.98,4.98,0,0,1-.6,1.7,3.95,3.95,0,0,1-1.123,1.292,5.489,5.489,0,0,1-1.975.9,6.505,6.505,0,0,1-2.5.016l-2.138-.353-.708,4.348-3.438-.556,2.165-13.337,5.656.919a8.923,8.923,0,0,1,2.111.566,5.212,5.212,0,0,1,1.438.909,3.585,3.585,0,0,1,1.009,1.548A4.335,4.335,0,0,1,502.913,861.969Zm-3.564-.5a1.6,1.6,0,0,0-.154-1.017,1.71,1.71,0,0,0-.613-.686,3.2,3.2,0,0,0-1.01-.4c-.34-.069-.789-.151-1.354-.244l-.6-.1-.646,3.985.984.16a8.058,8.058,0,0,0,1.472.123,1.985,1.985,0,0,0,1.017-.27,1.584,1.584,0,0,0,.588-.606A2.8,2.8,0,0,0,499.349,861.471Z" fill="#ffffff"/>
      <path id="Path_199" data-name="Path 199" d="M513.514,873.054l-9.646-1.566,2.163-13.329,9.643,1.563-.417,2.574-6.22-1-.375,2.3,5.775.937-.421,2.579-5.773-.935-.532,3.287,6.222,1.013Z" fill="#ffffff"/>
      <path id="Path_200" data-name="Path 200" d="M528.519,875.486l-3.313-.536-4.173-10.067-1.489,9.146-3.146-.508,2.16-13.337,4.107.673,3.628,8.428,1.239-7.644,3.152.516Z" fill="#ffffff"/>
    </g>
    <path id="Path_201" data-name="Path 201" d="M517.746,822.528a7.749,7.749,0,0,1-4.96,2.744L526.558,850.2l7.121,1.16Zm-13.272-2.47-26.56,22.254,7.4,1.2L508.12,824.4A7.762,7.762,0,0,1,504.474,820.058Z" fill="#c9d1d1"/>
    <path id="Path_202" data-name="Path 202" d="M477.914,842.312l7.4,1.2,3.768-3.16-7.4-1.2Zm53.478,4.9-7.121-1.152,2.287,4.137,7.121,1.16Z" fill="#c9d1d1"/>
  </g>
</svg>