<?xml version="1.0" encoding="iso-8859-1"?>
<!-- Generator: Adobe Illustrator 19.0.0, SVG Export Plug-In . SVG Version: 6.00 Build 0)  -->
<svg version="1.1" id="Layer_1" xmlns="http://www.w3.org/2000/svg" xmlns:xlink="http://www.w3.org/1999/xlink" x="0px" y="0px"
	 viewBox="0 0 511.999 511.999" style="enable-background:new 0 0 511.999 511.999;" xml:space="preserve">
<g>
	<g>
		<path d="M419.517,464.592l-30.801,2.111l-9.419-137.389c17.735-4.813,33.692-14.774,46.095-29.001
			c16.531-18.965,24.693-43.155,22.982-68.113L438.245,84.452c-0.968-14.125-13.243-24.826-27.371-23.859l-136.268,9.341
			c-8.216,0.565-15.253,4.97-19.53,11.325c-4.177-3.848-9.461-6.207-15.201-6.687L103.761,63.221
			c-14.105-1.172-26.543,9.345-27.72,23.451l-6.542,78.429c-0.004,0.045-0.009,0.091-0.011,0.136l-5.758,69.018
			c-2.079,24.93,5.724,49.237,21.974,68.444c12.19,14.409,27.999,24.606,45.662,29.679l-11.449,137.235l-30.766-2.566
			c-10.147-0.839-19.033,6.684-19.877,16.816c-0.844,10.133,6.684,19.032,16.816,19.877l98.226,8.194
			c0.52,0.043,1.038,0.065,1.551,0.065c9.475,0,17.524-7.27,18.327-16.881c0.844-10.133-6.684-19.031-16.816-19.877l-30.766-2.566
			l11.449-137.256c18.256-2.078,35.538-9.494,49.945-21.681c19.207-16.249,30.931-38.928,33.01-63.857l5.594-67.064l4.268,62.242
			c3.113,45.409,38.167,81.129,81.682,86.749l9.421,137.417l-30.801,2.111c-10.144,0.695-17.803,9.483-17.108,19.627
			c0.665,9.716,8.755,17.152,18.349,17.152c0.423,0,0.849-0.015,1.278-0.044l98.336-6.742c10.144-0.695,17.803-9.483,17.108-19.627
			S429.665,463.9,419.517,464.592z M214.324,246.817c-1.263,15.13-8.4,28.912-20.099,38.809s-26.477,14.658-41.602,13.391
			c-15.129-1.262-28.911-8.399-38.808-20.098c-9.897-11.698-14.652-26.473-13.391-41.602l3.772-45.215
			c19.171,5.829,39.504,7.57,59.414,5.003c16.427-2.12,33.35-0.275,48.937,5.335l5.318,1.913L214.324,246.817z M221.027,166.427
			c-19.94-6.504-41.329-8.525-62.13-5.84c-17.335,2.236-35.105,0.074-51.396-6.255l-0.151-0.059l4.457-53.432l113.899,9.5
			L221.027,166.427z M291.913,159.401l-3.667-53.493l114.027-7.817l3.849,56.148c-20.695-3.417-42.143-2.182-62.299,3.615
			c-16.795,4.83-34.691,5.377-51.752,1.583L291.913,159.401z M317.136,281.636c-11.552-10.068-18.485-23.954-19.524-39.099
			l-3.103-45.259c6.728,0.972,13.517,1.467,20.304,1.467c13.221,0,26.437-1.84,39.184-5.505c15.918-4.579,32.924-5.312,49.181-2.121
			l5.546,1.089l2.915,42.511c1.038,15.146-3.935,29.848-14.004,41.399c-10.069,11.552-23.956,18.485-39.1,19.522
			C343.388,296.678,328.687,291.706,317.136,281.636z"/>
	</g>
</g>
<g>
	<g>
		<path d="M234.787,18.64c-5.782-0.485-11.403,1.317-15.831,5.063c-4.431,3.748-7.136,8.998-7.617,14.775
			c-0.484,5.782,1.314,11.407,5.063,15.837c3.746,4.428,8.993,7.133,14.78,7.617c0.61,0.052,1.215,0.076,1.816,0.076
			c11.164,0,20.685-8.592,21.631-19.914C255.628,30.159,246.729,19.638,234.787,18.64z"/>
	</g>
</g>
<g>
	<g>
		<path d="M180.569,4.264c-11.936-1.006-22.456,7.902-23.454,19.844c-0.994,11.931,7.905,22.45,19.844,23.448
			c0.61,0.052,1.215,0.076,1.816,0.076c11.165,0,20.686-8.592,21.631-19.914C201.404,15.783,192.505,5.262,180.569,4.264z"/>
	</g>
</g>
<g>
	<g>
		<path d="M420.553,26.257v-0.006c-0.398-5.788-3.025-11.076-7.4-14.888c-4.373-3.811-9.971-5.695-15.753-5.295
			c-5.789,0.395-11.078,3.023-14.892,7.397c-3.812,4.374-5.694,9.972-5.297,15.754c0.396,5.791,3.023,11.079,7.399,14.893
			c3.99,3.477,8.998,5.348,14.236,5.348c0.503,0,1.01-0.017,1.517-0.052C412.311,48.592,421.369,38.207,420.553,26.257z"/>
	</g>
</g>
<g>
	<g>
		<path d="M364.779,20.233c-0.82-11.946-11.216-20.995-23.158-20.183c-5.788,0.398-11.075,3.024-14.887,7.397
			c-3.812,4.374-5.694,9.971-5.296,15.761c0.396,5.787,3.024,11.073,7.397,14.885c3.99,3.478,8.998,5.349,14.237,5.349
			c0.503,0,1.01-0.017,1.517-0.052c5.789-0.396,11.078-3.023,14.892-7.397S365.177,26.022,364.779,20.233z"/>
	</g>
</g>
<g>
</g>
<g>
</g>
<g>
</g>
<g>
</g>
<g>
</g>
<g>
</g>
<g>
</g>
<g>
</g>
<g>
</g>
<g>
</g>
<g>
</g>
<g>
</g>
<g>
</g>
<g>
</g>
<g>
</g>
</svg>
