<?xml version="1.0" encoding="iso-8859-1"?>
<!-- Generator: Adobe Illustrator 19.0.0, SVG Export Plug-In . SVG Version: 6.00 Build 0)  -->
<svg version="1.1" id="Layer_1" xmlns="http://www.w3.org/2000/svg" xmlns:xlink="http://www.w3.org/1999/xlink" x="0px" y="0px"
	 viewBox="0 0 512 512" style="enable-background:new 0 0 512 512;" xml:space="preserve">
<g>
	<g>
		<path d="M119.2,143.944c-29.456,0-53.424,24.448-53.424,54.512c0,30.064,23.968,54.496,53.424,54.496s53.408-24.448,53.408-54.512
			C172.608,168.376,148.656,143.944,119.2,143.944z M119.2,236.968c-20.64,0-37.424-17.28-37.424-38.512
			s16.784-38.512,37.424-38.512c20.624,0,37.408,17.28,37.408,38.512S139.824,236.968,119.2,236.968z"/>
	</g>
</g>
<g>
	<g>
		<path d="M171.744,269.4l-3.952-1.216L119.2,305.672l-48.592-37.504l-3.952,1.216C-0.064,289.896,0,359.464,0,360.168l0.096,7.904
			h238.208l0.096-7.904C238.416,359.464,238.48,289.896,171.744,269.4z M16.608,352.072c2.096-16,11.184-51.872,50.88-66.096
			l51.712,39.92l51.696-39.92c40.08,14.32,48.976,50.064,50.944,66.096H16.608z"/>
	</g>
</g>
<g>
	<g>
		<path d="M392.8,143.928c-29.456,0-53.408,24.448-53.408,54.512c0,30.064,23.952,54.512,53.408,54.512s53.424-24.448,53.424-54.512
			C446.224,168.376,422.256,143.928,392.8,143.928z M392.8,236.968c-20.624,0-37.408-17.28-37.408-38.512
			s16.784-38.512,37.408-38.512c20.64,0,37.424,17.28,37.424,38.512S413.44,236.968,392.8,236.968z"/>
	</g>
</g>
<g>
	<g>
		<path d="M445.344,269.4l-3.952-1.216L392.8,305.688l-48.576-37.504l-3.952,1.216c-66.736,20.512-66.672,90.064-66.656,90.768
			l0.096,7.904h238.192l0.096-7.904C512,359.464,512.064,289.896,445.344,269.4z M290.224,352.072
			c2.08-16,11.168-51.872,50.864-66.096l51.696,39.92l51.712-39.92c40.08,14.32,48.976,50.064,50.944,66.096H290.224z"/>
	</g>
</g>
<g>
</g>
<g>
</g>
<g>
</g>
<g>
</g>
<g>
</g>
<g>
</g>
<g>
</g>
<g>
</g>
<g>
</g>
<g>
</g>
<g>
</g>
<g>
</g>
<g>
</g>
<g>
</g>
<g>
</g>
</svg>
