<?xml version="1.0" encoding="iso-8859-1"?>
<!-- Generator: Adobe Illustrator 19.0.0, SVG Export Plug-In . SVG Version: 6.00 Build 0)  -->
<svg version="1.1" id="Layer_1" xmlns="http://www.w3.org/2000/svg" xmlns:xlink="http://www.w3.org/1999/xlink" x="0px" y="0px"
	 viewBox="0 0 512 512" style="enable-background:new 0 0 512 512;" xml:space="preserve">
<g>
	<g>
		<path d="M486.4,0c-14.142,0-25.6,11.458-25.6,25.6v93.867h-25.6V53.504c0-10.703-8.667-19.371-19.371-19.371h-63.659
			c-10.703,0-19.371,8.667-19.371,19.371v65.963h-25.6V53.504c0-10.703-8.667-19.371-19.371-19.371h-63.659
			c-10.703,0-19.371,8.667-19.371,19.371v65.963h-25.6V53.504c0-10.703-8.667-19.371-19.371-19.371H96.171
			c-10.703,0-19.371,8.667-19.371,19.371v65.963H51.2V25.6C51.2,11.458,39.742,0,25.6,0C11.458,0,0,11.458,0,25.6V512h51.2v-51.2
			h25.6h102.4h25.6h102.4h25.6h102.4h25.6V512H512V25.6C512,11.458,500.542,0,486.4,0z M349.867,53.504
			c0-1.278,1.026-2.304,2.304-2.304h63.659c1.278,0,2.304,1.026,2.304,2.304v65.963h-68.267V53.504z M221.867,53.504
			c0-1.278,1.026-2.304,2.304-2.304h63.659c1.278,0,2.304,1.026,2.304,2.304v65.963h-68.267V53.504z M93.867,53.504
			c0-1.278,1.026-2.304,2.304-2.304h63.659c1.278,0,2.304,1.026,2.304,2.304v65.963H93.867V53.504z M76.8,136.533h102.4h25.6h102.4
			h25.6h102.4h25.6V281.6h-25.6v-65.963c0-10.703-8.667-19.371-19.371-19.371h-63.659c-10.703,0-19.371,8.667-19.371,19.371V281.6
			h-25.6v-65.963c0-10.703-8.667-19.371-19.371-19.371h-63.659c-10.703,0-19.371,8.667-19.371,19.371V281.6h-25.6v-65.963
			c0-10.703-8.667-19.371-19.371-19.371H96.171c-10.703,0-19.371,8.667-19.371,19.371V281.6H51.2V136.533H76.8z M418.133,281.6
			h-68.267v-65.963c0-1.278,1.026-2.304,2.304-2.304h63.659c1.278,0,2.304,1.026,2.304,2.304V281.6z M290.133,281.6h-68.267v-65.963
			c0-1.278,1.026-2.304,2.304-2.304h63.659c1.278,0,2.304,1.026,2.304,2.304V281.6z M162.133,281.6H93.867v-65.963
			c0-1.278,1.026-2.304,2.304-2.304h63.659c1.278,0,2.304,1.026,2.304,2.304V281.6z M34.133,494.933H17.067V25.6
			c0-4.716,3.817-8.533,8.533-8.533c4.717,0,8.533,3.817,8.533,8.533V494.933z M93.867,443.733v-65.963
			c0-1.278,1.026-2.304,2.304-2.304h63.659c1.278,0,2.304,1.026,2.304,2.304v65.963H93.867z M221.867,443.733v-65.963
			c0-1.278,1.026-2.304,2.304-2.304h63.659c1.278,0,2.304,1.026,2.304,2.304v65.963H221.867z M349.867,443.733v-65.963
			c0-1.278,1.026-2.304,2.304-2.304h63.659c1.278,0,2.304,1.026,2.304,2.304v65.963H349.867z M435.2,443.733v-65.963
			c0-10.703-8.667-19.371-19.371-19.371h-63.659c-10.703,0-19.371,8.667-19.371,19.371v65.963h-25.6v-65.963
			c0-10.703-8.667-19.371-19.371-19.371h-63.659c-10.703,0-19.371,8.667-19.371,19.371v65.963h-25.6v-65.963
			c0-10.703-8.667-19.371-19.371-19.371H96.171c-10.703,0-19.371,8.667-19.371,19.371v65.963H51.2V298.667h25.6h102.4h25.6h102.4
			h25.6h102.4h25.6v145.067H435.2z M494.933,494.933h-17.067V25.6c0-4.716,3.817-8.533,8.533-8.533s8.533,3.817,8.533,8.533V494.933
			z"/>
	</g>
</g>
<g>
</g>
<g>
</g>
<g>
</g>
<g>
</g>
<g>
</g>
<g>
</g>
<g>
</g>
<g>
</g>
<g>
</g>
<g>
</g>
<g>
</g>
<g>
</g>
<g>
</g>
<g>
</g>
<g>
</g>
</svg>
