<?xml version="1.0" encoding="iso-8859-1"?>
<!-- Generator: Adobe Illustrator 19.0.0, SVG Export Plug-In . SVG Version: 6.00 Build 0)  -->
<svg version="1.1" id="Layer_1" xmlns="http://www.w3.org/2000/svg" xmlns:xlink="http://www.w3.org/1999/xlink" x="0px" y="0px"
	 viewBox="0 0 485 485" style="enable-background:new 0 0 485 485;" xml:space="preserve">
<g>
	<g>
		<g>
			<path d="M435,315V150v-7.5V45H290v90h-50v110h-20V140H55v105H0v195h485V315H435z M70,155h135v20H70V155z M70,190h135v55H70V190z
				 M150,260v70h-45v-70H150z M240,425H15V260h75v85h75v-85h75V425z M305,60h115v75H305V60z M355,150v75h-35v-75H355z M320,425h-65
				V150h50v90h65v-90h50v165H320V425z M470,425H335v-95h135V425z"/>
			<rect x="167.5" y="210" width="20" height="15"/>
			<rect x="137.5" y="210" width="20" height="15"/>
			<rect x="407.5" y="355" width="40" height="15"/>
			<rect x="377.5" y="385" width="70" height="15"/>
			<rect x="377.5" y="100" width="20" height="15"/>
			<rect x="347.5" y="100" width="20" height="15"/>
		</g>
	</g>
</g>
<g>
</g>
<g>
</g>
<g>
</g>
<g>
</g>
<g>
</g>
<g>
</g>
<g>
</g>
<g>
</g>
<g>
</g>
<g>
</g>
<g>
</g>
<g>
</g>
<g>
</g>
<g>
</g>
<g>
</g>
</svg>
